<svg id="Ebene_1" data-name="Ebene 1" xmlns="http://www.w3.org/2000/svg" viewBox="0 0 5079.75 735.31"><defs><style>.cls-1{fill:#e5231f;}</style></defs><path class="cls-1" d="M717.6,186.14,461.94,203.8,302.82,4.19,240.19,251.65,0,341,216.94,476.28l10.67,254.84L424.33,567.26l246.79,68.15L575.75,398.86Zm-104,386.71,7.45,18.51L601.83,586l-184.28-51.3L270.83,657.44l-15.31,12.81-.85-19.94L246.51,459.2,84.45,357.58,67.55,347l18.69-7L265.48,273.2,312.05,87.67l4.85-19.35,12.4,15.62L448.24,233.76l190.84-13,19.9-1.36L648,236,542.23,395.39Z"/><polygon class="cls-1" points="520.09 393.13 522.95 388.81 620.51 241.72 444.42 253.76 439.25 254.11 436.03 250.06 326.29 111.81 283.32 283.01 282.06 288.03 277.21 289.84 111.82 351.49 261.35 445.26 265.74 448.01 265.96 453.19 273.49 629.54 408.88 516.29 412.85 512.97 417.84 514.36 587.89 561.68 522.02 397.93 520.09 393.13"/><path class="cls-1" d="M1463.94,399.54l95.68-144.26,47-70.78-84.74,5.79-172.7,11.81L1241.5,66.52,1188.69,0,1168,82.38l-42.14,167.9L963.68,310.74l-79.59,29.67,72,45.12,146.65,92,7.38,172.94,3.63,84.87,65.15-54.5,132.78-111.07,166.76,46.43,81.83,22.77-31.69-78.8Zm-86,10.84,41.12,102.24-106.17-29.55-21.23-5.91-16.9,14.14L1190.22,562l-4.7-110.1-.94-22-18.67-11.71-93.37-58.54,103.27-38.5,20.65-7.69,5.36-21.38,26.83-106.89,68.52,86.31,13.7,17.27,22-1.51,110-7.52-60.91,91.85-12.18,18.36Z"/><polygon class="cls-1" points="4595.52 468.21 4601.44 471.92 4601.74 478.89 4611.89 716.65 4794.43 563.97 4799.78 559.49 4806.5 561.36 5035.76 625.17 4946.97 404.4 4944.36 397.93 4948.22 392.11 5079.75 193.79 4842.33 210.02 4835.37 210.5 4831.03 205.03 4683.07 18.65 4625.14 249.46 4623.44 256.23 4616.9 258.67 4393.93 341.79 4595.52 468.21"/><path class="cls-1" d="M4217.79,196.58l-23.11,1.58-221.59,15.15L3835,39.35l-14.4-18.14-5.64,22.47L3760.88,259.1l-208.13,77.59-21.7,8.09,19.62,12.31,188.17,118L3748.32,697l1,23.14,17.77-14.86,170.37-142.51,214,59.56,22.32,6.22-8.65-21.5L4082.22,401,4205,215.89ZM4059.84,393.36l-3.33,5,2.25,5.57,76.47,190.15-197.44-55-5.79-1.62-4.61,3.86-157.21,131.5-8.74-204.77-.26-6-5.1-3.2L3582.46,350l192-71.59,5.64-2.1,1.46-5.83,49.89-198.78,127.43,160.52,3.74,4.7,6-.4,204.48-14Z"/><path class="cls-1" d="M2478.6,189.16l-255.66,17.67L2063.82,7.21l-62.63,247.47L1761,344l216.94,135.29,10.67,254.83,196.72-163.86,246.79,68.15-95.37-236.55Zm-104,386.71,7.45,18.51L2362.83,589l-184.29-51.29L2031.83,660.47l-15.31,12.8-.85-19.94-8.17-191.11-162-101.62-16.9-10.6,18.69-7,179.24-66.81L2073,90.69l4.86-19.35L2090.3,87l118.94,149.81,190.83-13.05,19.91-1.36L2409,239,2303.23,398.41Z"/><path class="cls-1" d="M2281.09,396.15l2.86-4.31,97.56-147.1-176.09,12-5.17.35-3.22-4L2087.29,114.84l-43,171.19-1.26,5-4.85,1.8-165.39,61.66,149.53,93.77,4.39,2.75.22,5.17,7.53,176.35,135.39-113.25,4-3.32,5,1.39,170,47.33L2283,401Zm-122.2,65.76-3.06-.85-2.44,2-83.12,69.53-4.62-108.27-.14-3.18-2.7-1.69L1971,361.92l101.54-37.85,3-1.11.77-3.08,26.38-105.11,67.38,84.87,2,2.49,3.17-.21,108.12-7.4-59.9,90.31-1.76,2.65,1.19,2.95L2263.29,491Z"/><path class="cls-1" d="M3370.92,186.14,3115.26,203.8,2956.14,4.19l-62.63,247.46L2653.32,341l216.94,135.28,10.67,254.84,196.72-163.86,246.79,68.15-95.37-236.55Zm-104,386.71,7.45,18.51L3255.15,586l-184.29-51.3L2924.15,657.44l-15.31,12.81-.85-19.94-8.17-191.11L2737.77,357.58l-16.9-10.6,18.69-7L2918.8,273.2l46.56-185.53,4.86-19.35,12.4,15.62,118.94,149.82,190.84-13,19.9-1.36-11,16.63L3195.55,395.39Z"/><path class="cls-1" d="M3173.41,393.13l2.86-4.32,97.56-147.09-176.09,12-5.17.35-3.22-4.05L2979.61,111.82l-43,171.19-1.26,5-4.85,1.81-165.39,61.65,149.53,93.77,4.39,2.75.22,5.18,7.53,176.35L3062.2,516.29l4-3.32,5,1.39,170,47.32-65.86-163.75ZM3064.3,378.51l18.94,47.09L3034.35,412l-1.44-.4-1.14,1-38.93,32.56-2.17-50.71-.06-1.49-1.26-.79-43-27,47.56-17.73,1.39-.52.37-1.44L3008,296.24,3039.58,336l.92,1.17,1.49-.1,50.64-3.47-28.06,42.3-.82,1.24Z"/></svg>