<?xml version="1.0" encoding="utf-8"?>
<!-- Generator: Adobe Illustrator 26.2.1, SVG Export Plug-In . SVG Version: 6.00 Build 0)  -->
<svg version="1.1" id="Layer_1" xmlns="http://www.w3.org/2000/svg" xmlns:xlink="http://www.w3.org/1999/xlink" x="0px" y="0px"
	 viewBox="0 0 1140 1140" style="enable-background:new 0 0 1140 1140;" xml:space="preserve">
<style type="text/css">
	.st0{fill:#353F45;}
</style>
<g>
	<path class="st0" d="M467.2,1131c396.9,69.5,736.6-273.9,662.6-669.9c-43.2-230.9-225.7-411.4-457-452
		C276-60.6-63.7,282.8,10.2,678.9C53.2,909.9,235.8,1090.4,467.2,1131z M567.4,119.4c228.1-1.3,418,168.1,448.7,388.2l-478.7,2.6
		l119.2-120.5c23.3-23.6,23.1-61.5-0.5-84.8c-11.8-11.7-27.2-17.4-42.5-17.3c-15.4,0.1-30.7,6-42.3,17.8l-221,223.5
		c-23.3,23.6-23.1,61.5,0.5,84.8l223.5,221c23.6,23.3,61.5,23.1,84.9-0.5c23.3-23.6,23.1-61.5-0.5-84.8L538.1,630.2l478.8-2.6
		c-31.6,246.7-263.5,432.1-527.8,386c-182.2-31.8-326.4-173.4-361.2-355C73.1,372.7,290.9,120.9,567.4,119.4z"/>
</g>
</svg>
