<?xml version="1.0" encoding="utf-8"?>
<!-- Generator: Adobe Illustrator 26.2.1, SVG Export Plug-In . SVG Version: 6.00 Build 0)  -->
<svg version="1.1" id="Layer_1" xmlns="http://www.w3.org/2000/svg" xmlns:xlink="http://www.w3.org/1999/xlink" x="0px" y="0px"
	 viewBox="0 0 1140 1140" style="enable-background:new 0 0 1140 1140;" xml:space="preserve">
<style type="text/css">
	.st0{fill:#353F45;}
</style>
<g>
	<path class="st0" d="M570.1,0C255.7,0,0,255.7,0,569.9C0,884.2,255.7,1140,570.1,1140c314.2,0,569.9-255.7,569.9-570.1
		C1140,255.7,884.3,0,570.1,0z M570.1,1020.6c-228.1,0-417.1-170.4-446.6-390.6h478.7L482.4,749.8c-23.4,23.4-23.4,61.4,0,84.8
		c11.7,11.7,27.1,17.6,42.4,17.6c15.4,0,30.7-5.9,42.4-17.6l222.3-222.3c23.4-23.4,23.4-61.4,0-84.8L567.3,305.3
		c-23.4-23.4-61.4-23.4-84.9,0c-23.4,23.4-23.4,61.4,0,84.8L602.2,510H123.5c29.4-220.2,218.4-390.6,446.6-390.6
		c248.4,0,450.5,202.1,450.5,450.5C1020.6,818.4,818.5,1020.6,570.1,1020.6z"/>
</g>
</svg>
