<?xml version="1.0" encoding="utf-8"?>
<!-- Generator: Adobe Illustrator 26.2.1, SVG Export Plug-In . SVG Version: 6.00 Build 0)  -->
<svg version="1.1" id="_x2014_ÎÓÈ_x5F_1" xmlns="http://www.w3.org/2000/svg" xmlns:xlink="http://www.w3.org/1999/xlink"
	 x="0px" y="0px" viewBox="0 0 1000 1000" style="enable-background:new 0 0 1000 1000;" xml:space="preserve">
<style type="text/css">
	.st0{fill:#AF043E;}
	.st1{fill:none;stroke:#FFFFFF;stroke-width:5;stroke-linecap:round;stroke-linejoin:round;stroke-miterlimit:10;}
	.st2{fill:#FFFFFF;stroke:#FFFFFF;stroke-miterlimit:10;}
</style>
<rect y="0" class="st0" width="1000" height="1000"/>
<g>
	<path class="st1" d="M290.3,389.5l-96.5,200c0,0,251.2-53.5,247.7-54.7C437.9,533.7,167,410.5,167,410.5l177.9,233.7l96.5-240.7
		L225.1,608.1l184.9-5.8L290.3,389.5z"/>
	<path class="st1" d="M190.3,527.9c9.3-10.5,162.8-114,162.8-114l88.4,75.6l-103.5,97.7l2.3-100c0,0-111.6,138.4-111.6,134.9
		s58.1-266.3,58.1-266.3L410,602.3L268.2,489l125.6-89c0,0-87.2,253-94.2,237c-7-16,4.7-164.1,4.7-164.1L190.3,527.9z"/>
	
		<ellipse transform="matrix(0.7071 -0.7071 0.7071 0.7071 -153.5581 652.5337)" class="st1" cx="710.9" cy="511.6" rx="122.1" ry="122.1"/>
	<g>
		<path class="st2" d="M588.8,522.8H408.9c-1.4,0-2.5-1.1-2.5-2.5c0-1.4,1.1-2.5,2.5-2.5h179.9c1.4,0,2.5,1.1,2.5,2.5
			C591.3,521.7,590.2,522.8,588.8,522.8z"/>
	</g>
</g>
</svg>
